<?xml version="1.0" encoding="UTF-8" standalone="no"?>
<svg
   width="102"
   height="20"
   version="1.1"
   id="svg8"
   sodipodi:docname="avali-passing.svg"
   inkscape:version="1.3.2 (091e20ef0f, 2023-11-25)"
   xmlns:inkscape="http://www.inkscape.org/namespaces/inkscape"
   xmlns:sodipodi="http://sodipodi.sourceforge.net/DTD/sodipodi-0.dtd"
   xmlns="http://www.w3.org/2000/svg"
   xmlns:svg="http://www.w3.org/2000/svg"
   xmlns:rdf="http://www.w3.org/1999/02/22-rdf-syntax-ns#"
   xmlns:cc="http://creativecommons.org/ns#"
   xmlns:dc="http://purl.org/dc/elements/1.1/">
  <sodipodi:namedview
     id="namedview8"
     pagecolor="#ffffff"
     bordercolor="#000000"
     borderopacity="0.25"
     inkscape:showpageshadow="2"
     inkscape:pageopacity="0.0"
     inkscape:pagecheckerboard="0"
     inkscape:deskcolor="#d1d1d1"
     inkscape:zoom="4.8430233"
     inkscape:cx="45.013205"
     inkscape:cy="-2.1680672"
     inkscape:window-width="1920"
     inkscape:window-height="1060"
     inkscape:window-x="0"
     inkscape:window-y="20"
     inkscape:window-maximized="1"
     inkscape:current-layer="g8" />
  <title
     id="title1">ci - passing</title>
  <defs
     id="defs4">
    <linearGradient
       id="workflow-fill"
       x1="13.416408"
       y1="0"
       x2="13.416408"
       y2="26.832815"
       gradientTransform="scale(1.9586821,0.74535599)"
       gradientUnits="userSpaceOnUse">
      <stop
         stop-color="#444D56"
         offset="0%"
         id="stop1" />
      <stop
         stop-color="#24292E"
         offset="100%"
         id="stop2" />
    </linearGradient>
    <linearGradient
       id="state-fill"
       x1="15.811388"
       y1="0"
       x2="15.811388"
       y2="31.622778"
       gradientTransform="scale(1.5811388,0.63245553)"
       gradientUnits="userSpaceOnUse">
      <stop
         stop-color="#34D058"
         offset="0%"
         id="stop3" />
      <stop
         stop-color="#28A745"
         offset="100%"
         id="stop4" />
    </linearGradient>
  </defs>
  <g
     fill="none"
     fill-rule="evenodd"
     id="g8">
    <g
       font-family="'DejaVu Sans', Verdana, Geneva, sans-serif"
       font-size="11px"
       id="g5">
      <path
         id="workflow-bg"
         d="M 0,3 C 0,1.3431 1.9784773,0 4.4192033,0 H 52.556953 V 20 H 4.4192033 C 1.9784773,20 0,18.6569 0,17 Z"
         fill="url(#workflow-fill)"
         fill-rule="nonzero"
         style="fill:url(#workflow-fill);stroke-width:1.20827" />
      <text
         fill="#010101"
         fill-opacity="0.3"
         id="text4"><tspan
           x="22.198198"
           y="15"
           aria-hidden="true"
           id="tspan4">avali</tspan></text>
      <text
         fill="#ffffff"
         id="text5"><tspan
           sodipodi:role="line"
           id="tspan9"
           x="22.198198"
           y="14"><tspan
             x="22.198198"
             y="14"
             id="tspan5">avali</tspan></tspan></text>
    </g>
    <g
       transform="translate(52)"
       font-family="'DejaVu Sans', Verdana, Geneva, sans-serif"
       font-size="11px"
       id="g7">
      <path
         d="M 0,0 H 46.939 C 48.629,0 50,1.343 50,3 v 14 c 0,1.657 -1.37,3 -3.061,3 H 0 Z"
         id="state-bg"
         fill="url(#state-fill)"
         fill-rule="nonzero"
         style="fill:url(#state-fill)" />
      <text
         fill="#010101"
         fill-opacity="0.3"
         aria-hidden="true"
         id="text6"><tspan
           x="4"
           y="15"
           id="tspan6">passing</tspan></text>
      <text
         fill="#ffffff"
         id="text7"><tspan
           x="4"
           y="14"
           id="tspan7">passing</tspan></text>
    </g>
    <path
       style="fill:#959da5;fill-opacity:1;stroke:none;stroke-width:0.0157039"
       d="M 15.050081,1 C 13.487376,2.925576 11.91435,4.8642679 10.730153,7.0538507 10.073856,8.2673423 9.5550129,9.5615969 9.1278188,10.872305 c -0.2165502,0.664408 -0.4069015,1.33618 -0.6028693,2.00687 -0.170907,0.584926 -0.3318065,1.172882 -0.4723899,1.765882 -0.085904,0.362361 -0.1567164,0.728165 -0.2322121,1.092766 -0.060898,0.294115 -0.1187755,0.589434 -0.1721034,0.88502 -0.023198,0.12851 -0.062672,0.260455 -0.073026,0.390569 h 0.00416 c 0.1345779,-0.323255 0.3034604,-0.636281 0.455976,-0.951497 0.3227469,-0.667047 0.6518007,-1.333512 1.0333838,-1.969475 0.5739528,-0.956578 1.2257211,-1.874977 1.9112011,-2.754773 0.536724,-0.688874 1.128397,-1.322632 1.73104,-1.9528535 0.20155,-0.2107728 0.408555,-0.4170295 0.614778,-0.6232527 0.06581,-0.065821 0.129628,-0.1335631 0.195289,-0.1994407 0.03705,-0.03716 0.08351,-0.073295 0.113633,-0.1163386 0.05215,-0.074492 0.08089,-0.1821632 0.116634,-0.2659229 0.07745,-0.1814965 0.156342,-0.3623528 0.232693,-0.5443053 0.243764,-0.5809208 0.490625,-1.1603003 0.714662,-1.7492606 0.168753,-0.4436309 0.331145,-0.888783 0.472012,-1.3420682 0.146726,-0.4721265 0.268901,-0.950446 0.290583,-1.4459427 0.01664,-0.3801381 -0.07045,-0.7699582 -0.15502,-1.1384739 -0.05366,-0.2338391 -0.112227,-0.4673995 -0.178427,-0.6980408 -0.01665,-0.057979 -0.03225,-0.1162892 -0.04802,-0.1745114 -0.0075,-0.027591 -0.0114,-0.064946 -0.02971,-0.087251 M 8.2774191,16.194881 c 0.12431,-0.06928 0.240874,-0.172641 0.3531757,-0.260003 0.1958216,-0.152331 0.3914384,-0.304638 0.5858587,-0.458801 0.4978048,-0.394733 1.0051505,-0.777153 1.5373525,-1.124591 0.648321,-0.423249 1.313611,-0.811976 1.994404,-1.180172 0.221024,-0.119536 0.444202,-0.2369 0.668958,-0.349277 0.09309,-0.04655 0.18737,-0.09242 0.278384,-0.142875 0.02928,-0.01624 0.06446,-0.02733 0.09104,-0.04778 0.05541,-0.04268 0.09907,-0.117775 0.143403,-0.171864 0.105445,-0.128651 0.210334,-0.257761 0.315782,-0.386415 0.337596,-0.411881 0.672093,-0.826306 1.009669,-1.238193 0.277998,-0.339198 0.552978,-0.680865 0.828421,-1.0221326 0.27328,-0.3385911 0.547811,-0.6780388 0.797415,-1.034596 0.268141,-0.3830365 0.547488,-0.7796793 0.69195,-1.2298843 0.190029,-0.5922092 0.144372,-1.2042357 0.144372,-1.8157394 -0.03997,0.012667 -0.07735,0.043505 -0.112182,0.066466 -0.05632,0.037102 -0.113656,0.072799 -0.170357,0.1093143 -0.189666,0.1221722 -0.379308,0.2445275 -0.565081,0.3725679 -0.631185,0.4350302 -1.245592,0.8892896 -1.840668,1.3728754 -0.7304,0.5935515 -1.422772,1.2263848 -2.102435,1.8762838 -0.50769,0.4854569 -1.007174,0.9881569 -1.460801,1.5250539 -0.674597,0.798425 -1.262416,1.665379 -1.8218801,2.547019 -0.3705606,0.583951 -0.7422796,1.171873 -1.0437625,1.794964 -0.087267,0.180368 -0.1659515,0.364807 -0.2359682,0.552616 -0.028872,0.07749 -0.074796,0.163355 -0.087048,0.245149 m -0.9348775,0.831 0.049171,-0.415498 0.075481,-0.623253 C 7.3580508,15.923418 7.2445267,15.868041 7.1389472,15.798001 6.7985317,15.572172 6.4788886,15.301302 6.2047746,14.998227 5.3730085,14.078582 4.924266,12.850599 4.9785063,11.611893 5.0297261,10.442071 5.5368178,9.3291926 6.3538121,8.4956967 7.0747079,7.7602416 8.0744918,7.2752238 9.0959578,7.1529233 c 0.3105338,-0.037183 0.6186016,-0.050195 0.9307202,-0.028811 0.119849,0.00818 0.252701,0.00576 0.369798,0.033613 0.114139,-0.1730627 0.201783,-0.3702211 0.300445,-0.5526192 0.06459,-0.1194155 0.151768,-0.2423132 0.198155,-0.369794 -0.09928,-0.023641 -0.210049,-0.023779 -0.311624,-0.033947 C 10.370274,6.1800387 10.157456,6.161407 9.9435805,6.1520451 9.3911281,6.1278861 8.8403785,6.1751562 8.3023482,6.3096659 7.035983,6.6262548 5.8899027,7.3907264 5.114977,8.441621 4.7272826,8.9673822 4.4366652,9.5552508 4.2430109,10.178415 c -0.6526811,2.100273 0.041202,4.486149 1.6992924,5.926217 0.3157087,0.274197 0.6552232,0.517414 1.022133,0.718916 0.091254,0.05011 0.1817188,0.101634 0.274231,0.149383 0.033808,0.01747 0.067293,0.04218 0.1038745,0.05293 m 7.9859322,-5.925044 -0.661291,0.760366 -0.213022,0.245145 -0.09385,0.112181 -0.009,0.108025 -0.01591,0.286697 c 0.08575,-0.02033 0.170641,-0.06089 0.253455,-0.09119 0.157851,-0.05773 0.316239,-0.114104 0.473672,-0.172967 0.06903,-0.02581 0.138822,-0.04965 0.20775,-0.07576 0.02492,-0.0094 0.06505,-0.01556 0.08512,-0.03338 0.01495,-0.01328 0.01128,-0.04469 0.01343,-0.06298 0.0071,-0.06071 0.0077,-0.122167 0.01483,-0.182819 0.02592,-0.219379 0.01732,-0.446393 -0.0131,-0.664801 -0.0074,-0.05275 -0.01568,-0.105353 -0.02446,-0.157892 -0.0037,-0.02252 -0.0036,-0.05229 -0.01764,-0.07064 m -7.4748633,6.095402 c 0.059884,-0.0258 0.1151007,-0.0677 0.170354,-0.102117 0.1224964,-0.07629 0.2411957,-0.15763 0.3573325,-0.243232 0.3248237,-0.239419 0.6611381,-0.493493 1.055373,-0.606526 0.3575841,-0.10252 0.7168758,-0.09179 1.0844568,-0.08278 0.258647,0.0063 0.518255,5.3e-5 0.776988,5.3e-5 h 0.349022 c 0.05602,0 0.119316,0.0083 0.174508,-0.0015 0.04908,-0.0085 0.09931,-0.03671 0.145427,-0.05515 0.09116,-0.03643 0.18248,-0.07303 0.274231,-0.107933 0.332435,-0.126457 0.660612,-0.264113 0.993047,-0.39057 0.152939,-0.05818 0.305119,-0.118825 0.457049,-0.179597 0.07122,-0.02849 0.147447,-0.05116 0.216062,-0.08548 0.156465,-0.07824 0.303669,-0.186206 0.452896,-0.277629 0.301495,-0.184715 0.605812,-0.364845 0.909948,-0.545171 0.455801,-0.27025 0.911763,-0.54353 1.346223,-0.847136 0.311397,-0.21761 0.618478,-0.448295 0.867148,-0.738427 0.261904,-0.305574 0.442284,-0.680616 0.570486,-1.059531 -0.196049,0.02638 -0.393333,0.09195 -0.585858,0.137597 -0.437661,0.103752 -0.87383,0.213873 -1.308826,0.328246 -1.252385,0.329288 -2.509913,0.679521 -3.660565,1.286662 -0.391029,0.206327 -0.76016,0.450971 -1.130165,0.691909 -0.401635,0.261535 -0.799219,0.52998 -1.19664,0.797869 -0.5340932,0.360009 -1.073244,0.724842 -1.5747492,1.129608 -0.2650689,0.213938 -0.4953709,0.439407 -0.6492088,0.747083 -0.032664,0.06533 -0.074401,0.133153 -0.094539,0.203597 m 0.3240896,0.103879 v 0.0041 c 0.1847493,0.04552 0.38127,0.05987 0.5692371,0.08902 0.4912756,0.0762 0.9868366,0.123277 1.4833393,0.08928 0.318558,-0.02182 0.640149,-0.08696 0.947342,-0.172371 0.412214,-0.114612 0.81806,-0.265979 1.192488,-0.474861 0.304334,-0.169778 0.583752,-0.378763 0.847621,-0.605444 0.171373,-0.147214 0.339524,-0.298411 0.502758,-0.454496 0.0653,-0.06245 0.151541,-0.121556 0.203594,-0.195447 -0.06191,0.01466 -0.12317,0.04403 -0.182819,0.06627 l -0.340711,0.127249 c -0.341848,0.127841 -0.684791,0.252821 -1.026286,0.38163 -0.106447,0.04015 -0.213336,0.0792 -0.319939,0.118942 -0.05348,0.01994 -0.110201,0.04941 -0.166201,0.06055 -0.06708,0.01333 -0.147639,0.0015 -0.216058,0.0015 h -0.403037 c -0.06679,0 -0.137202,-0.0064 -0.203595,5.85e-4 -0.04314,0.0046 -0.08715,0.02472 -0.128806,0.03668 -0.08361,0.02399 -0.168127,0.04744 -0.253455,0.06461 -0.254737,0.05127 -0.514091,0.07934 -0.7728309,0.09706 -0.1670372,0.0114 -0.3357238,0.0114 -0.5027577,0 -0.062359,-0.0043 -0.1245499,-0.01293 -0.1869755,-0.01641 -0.021676,-0.0012 -0.049394,-0.01048 -0.070633,-0.0039 -0.031944,0.0098 -0.065863,0.04899 -0.091413,0.07019 -0.061852,0.05133 -0.1248045,0.101357 -0.1869726,0.152308 -0.1491281,0.122224 -0.2996137,0.242789 -0.4487419,0.365015 -0.080098,0.06565 -0.1588166,0.140571 -0.2451476,0.197675 z"
       id="path2" />
  </g>
  <metadata
     id="metadata10">
    <rdf:RDF>
      <cc:Work
         rdf:about="">
        <dc:title>ci - passing</dc:title>
      </cc:Work>
    </rdf:RDF>
  </metadata>
</svg>
